<?xml version="1.0" standalone="no"?>
<!DOCTYPE svg PUBLIC "-//W3C//DTD SVG 20010904//EN"
 "http://www.w3.org/TR/2001/REC-SVG-20010904/DTD/svg10.dtd">
<svg version="1.0" xmlns="http://www.w3.org/2000/svg"
 width="1117.000000pt" height="1280.000000pt" viewBox="0 0 1117.000000 1280.000000"
 preserveAspectRatio="xMidYMid meet">

<g transform="translate(0.000000,1280.000000) scale(0.100000,-0.100000)"
fill="#000000" stroke="none">
<path d="M5580 10053 c-641 -50 -1261 -295 -1764 -696 -172 -138 -475 -459
-606 -644 -15 -21 -16 -20 -140 49 -249 141 -380 186 -565 195 -143 7 -208 -5
-303 -52 -361 -182 -483 -626 -281 -1022 52 -100 101 -165 208 -273 132 -133
282 -223 446 -268 39 -10 70 -23 70 -28 0 -5 -7 -63 -15 -129 -20 -167 -18
-550 4 -720 84 -646 323 -1200 726 -1685 127 -153 401 -415 546 -523 1100
-821 2604 -849 3739 -70 147 101 195 141 359 296 164 155 276 279 392 432 321
429 519 910 609 1485 26 163 32 605 11 790 -30 257 -90 515 -181 770 -116 324
-338 704 -565 965 -111 127 -335 349 -428 423 -513 408 -1095 643 -1742 702
-106 9 -415 11 -520 3z m405 -33 c687 -38 1307 -276 1840 -706 92 -74 342
-322 431 -429 386 -458 637 -1035 720 -1650 25 -181 25 -609 1 -785 -101 -728
-400 -1342 -897 -1841 -175 -176 -237 -232 -351 -317 -429 -321 -906 -519
-1469 -607 -162 -26 -596 -32 -780 -11 -569 65 -1101 275 -1556 614 -180 135
-496 451 -631 632 -300 403 -487 820 -583 1300 -46 232 -55 332 -55 625 0 232
14 447 30 463 2 2 58 -1 123 -7 73 -7 379 -11 770 -11 592 0 651 -1 663 -17
11 -13 15 -115 17 -548 3 -471 1 -533 -12 -545 -9 -7 -16 -20 -16 -30 0 -22
95 -102 117 -98 41 8 43 28 43 635 0 565 1 583 19 593 27 14 615 14 642 0 18
-10 19 -24 19 -315 0 -206 -3 -306 -11 -310 -6 -4 -30 -38 -54 -75 -24 -37
-58 -79 -77 -93 -64 -48 -167 -58 -226 -20 -50 31 -77 142 -51 210 27 72 111
122 239 142 112 18 140 29 140 54 0 29 -35 77 -80 109 -39 28 -50 27 -50 -4 0
-24 -26 -33 -150 -52 -173 -25 -235 -83 -235 -216 1 -74 12 -100 79 -183 48
-58 183 -155 245 -176 48 -16 135 -14 177 4 20 8 40 13 44 10 5 -3 6 -173 3
-378 -11 -743 22 -1010 152 -1243 28 -51 34 -68 26 -83 -13 -24 -105 -81 -130
-81 -11 0 -38 27 -69 68 -61 82 -202 234 -245 264 -28 19 -30 19 -16 2 9 -10
49 -59 90 -109 128 -154 190 -245 180 -264 -15 -27 -269 -149 -366 -175 -97
-27 -237 -31 -335 -12 -46 10 -100 25 -120 34 -72 33 -71 32 -63 18 14 -24 66
-63 133 -99 205 -112 470 -94 765 52 55 27 105 46 111 43 6 -4 65 -68 131
-142 129 -145 381 -395 389 -387 3 3 -31 40 -76 83 -172 165 -403 442 -398
477 4 26 110 91 135 82 10 -3 45 -38 78 -76 33 -38 71 -76 84 -85 l24 -17 -23
34 c-13 19 -45 64 -72 100 -26 37 -48 73 -48 81 0 22 467 380 671 515 395 261
744 342 1084 251 44 -11 92 -27 108 -35 42 -21 32 3 -15 35 -178 122 -394 165
-644 128 -301 -44 -556 -179 -1039 -550 -148 -114 -237 -175 -250 -174 -16 2
-27 24 -52 98 -64 188 -63 173 -63 1362 l0 1077 325 3 325 3 0 -195 c0 -221
-12 -298 -54 -359 -43 -61 -196 -151 -259 -151 -39 0 -67 -17 -67 -40 0 -13
15 -24 57 -40 46 -17 78 -21 179 -21 77 0 126 -3 130 -10 3 -6 8 -74 10 -151
3 -127 6 -144 26 -174 27 -39 67 -59 103 -50 l25 6 0 1670 0 1670 325 0 c312
0 326 1 345 20 29 29 26 74 -6 99 -26 21 -33 21 -769 21 -736 0 -743 0 -769
-21 -32 -25 -35 -70 -6 -99 19 -19 33 -20 375 -20 l355 0 0 -1010 0 -1010
-658 0 c-587 0 -660 2 -680 16 -24 17 -27 16 -136 -9 -62 -14 -168 -7 -206 13
-11 6 -32 34 -47 63 -24 45 -28 64 -28 137 0 71 4 94 26 141 47 100 136 166
256 189 84 17 179 0 284 -51 45 -22 83 -38 86 -36 6 6 -74 68 -152 119 -110
70 -153 83 -275 83 -119 0 -177 -19 -238 -78 -159 -151 -161 -351 -7 -512 30
-31 55 -61 55 -66 0 -5 -267 -9 -652 -8 -591 1 -757 5 -772 20 -7 6 36 196 70
314 76 260 208 558 344 775 39 63 73 117 75 119 2 2 16 -6 32 -16 39 -27 236
-134 308 -167 144 -67 357 -131 514 -156 41 -7 160 -13 265 -13 214 -1 267 10
366 73 125 80 173 197 149 369 -13 93 -36 155 -93 251 -64 107 -91 138 -107
122 -11 -10 -7 -24 19 -75 48 -95 63 -144 69 -237 8 -121 -12 -185 -79 -257
-105 -111 -241 -151 -473 -139 -203 11 -331 35 -535 102 -94 31 -384 166 -395
184 -6 9 73 116 165 225 84 99 293 312 380 386 389 333 908 582 1425 683 189
38 283 48 585 64 14 1 102 -3 195 -8z m-3253 -1181 c78 -17 355 -139 411 -181
17 -13 15 -20 -44 -113 -183 -290 -330 -650 -406 -989 -26 -118 -30 -126 -52
-126 -66 0 -258 69 -356 128 -115 69 -244 213 -294 325 -58 135 -66 364 -18
508 74 219 261 403 451 444 76 17 238 19 308 4z"/>
<path d="M6385 7218 c-10 -45 -187 -1044 -192 -1085 l-6 -43 46 0 c52 0 45
-14 72 150 9 52 17 96 19 97 4 5 217 5 222 1 3 -4 44 -229 44 -245 0 -2 23 -3
51 -3 48 0 51 1 46 23 -3 12 -49 267 -102 566 -53 300 -98 548 -101 553 -3 4
-25 8 -49 8 -38 0 -45 -3 -50 -22z m96 -434 c22 -137 42 -273 46 -301 l6 -53
-97 0 c-89 0 -96 1 -96 20 0 10 14 104 30 207 49 304 63 383 67 379 2 -2 22
-116 44 -252z"/>
<path d="M5300 7061 c0 -13 85 -46 194 -75 55 -15 101 -28 103 -30 2 -2 -41
-8 -94 -14 -131 -16 -171 -28 -209 -66 -57 -57 -57 -144 -1 -218 44 -58 73
-61 93 -11 40 100 62 118 165 134 88 13 154 33 197 59 25 15 32 27 32 50 0 46
-23 82 -67 107 -75 42 -413 95 -413 64z"/>
<path d="M6991 6792 c-56 -11 -76 -12 -79 -4 -2 7 -23 12 -48 12 l-44 0 0
-355 0 -355 45 0 45 0 2 308 3 307 88 3 87 3 0 -71 0 -70 50 0 50 0 0 91 c0
87 -1 92 -29 120 -34 33 -54 35 -170 11z"/>
<path d="M7300 6155 l0 -65 55 0 55 0 0 65 0 65 -55 0 -55 0 0 -65z"/>
<path d="M6167 5983 c-4 -3 -7 -23 -7 -44 0 -30 9 -48 50 -96 37 -44 50 -66
50 -90 0 -31 -2 -33 -35 -33 -33 0 -35 2 -35 35 0 25 -4 35 -16 35 -12 0 -14
-9 -12 -42 l3 -43 58 -3 c41 -2 57 1 58 10 8 72 5 81 -43 138 -35 42 -48 67
-48 89 0 29 3 31 35 31 33 0 35 -2 35 -36 0 -21 4 -34 11 -32 6 2 10 7 10 11
-1 4 -1 23 -1 42 l0 35 -53 0 c-30 0 -57 -3 -60 -7z"/>
<path d="M6480 5980 c0 -5 11 -10 25 -10 l25 0 0 -135 c0 -113 2 -135 15 -135
13 0 15 22 15 135 l0 135 25 0 c14 0 25 5 25 10 0 6 -28 10 -65 10 -37 0 -65
-4 -65 -10z"/>
<path d="M6850 5986 c0 -2 -11 -58 -25 -126 -14 -68 -25 -131 -25 -141 0 -30
18 -22 25 12 6 27 10 30 38 27 27 -2 33 -8 35 -30 2 -17 9 -28 19 -28 11 0 14
7 10 28 -3 15 -16 80 -28 145 -15 79 -27 117 -36 117 -7 0 -13 -2 -13 -4z m33
-198 c-2 -5 -13 -8 -24 -8 -23 0 -25 24 -7 102 l12 53 12 -70 c6 -38 10 -73 7
-77z"/>
<path d="M7120 5980 c0 -5 11 -10 25 -10 l25 0 0 -135 c0 -178 18 -180 22 -2
3 128 4 132 26 135 46 7 20 22 -38 22 -33 0 -60 -4 -60 -10z"/>
<path d="M7440 5845 c0 -122 2 -145 15 -145 13 0 15 23 15 145 0 122 -2 145
-15 145 -13 0 -15 -23 -15 -145z"/>
<path d="M7697 5984 c-4 -4 -7 -70 -7 -146 l0 -138 65 0 66 0 -3 143 -3 142
-55 3 c-31 2 -59 0 -63 -4z m93 -139 l0 -125 -40 0 -41 0 2 125 1 125 39 0 39
0 0 -125z"/>
<path d="M8040 5845 c0 -167 18 -201 22 -42 l3 102 40 -102 c22 -57 43 -103
47 -103 5 0 8 65 8 145 0 167 -18 201 -22 43 l-3 -103 -39 103 c-21 56 -42
102 -47 102 -5 0 -9 -65 -9 -145z"/>
<path d="M7445 5113 c88 -150 115 -343 67 -483 -62 -181 -233 -350 -477 -470
-217 -107 -412 -146 -680 -137 -223 8 -378 47 -555 138 -42 21 -80 39 -85 39
-5 0 26 -25 69 -55 364 -253 823 -302 1276 -135 423 156 666 489 590 810 -18
81 -83 199 -147 269 -79 87 -101 97 -58 24z"/>
<path d="M4190 5125 c-139 -39 -224 -133 -250 -277 -13 -68 5 -170 43 -244 30
-58 93 -132 134 -156 l28 -16 -32 66 c-82 169 -61 329 58 436 125 114 321 127
517 36 73 -34 72 -25 -3 30 -59 43 -148 91 -216 116 -64 23 -212 28 -279 9z"/>
<path d="M2287 3248 c-11 -7 -8 -8 37 -22 8 -3 48 -108 97 -255 l84 -251 47 0
46 0 84 253 c82 243 86 252 112 255 15 2 26 8 24 14 -5 15 -200 17 -205 2 -2
-7 2 -12 9 -11 42 1 69 -5 74 -17 3 -8 -20 -86 -52 -173 -31 -87 -62 -178 -69
-203 l-11 -44 -66 194 c-37 107 -70 207 -73 223 -4 15 -12 30 -18 34 -14 8
-106 10 -120 1z"/>
<path d="M2904 3248 c-3 -5 2 -10 10 -13 9 -3 23 -7 31 -10 13 -4 15 -37 13
-242 -3 -229 -4 -238 -23 -241 -11 -2 -24 -8 -30 -13 -5 -5 32 -9 93 -9 61 0
102 4 102 10 0 6 -8 10 -18 10 -39 0 -42 16 -42 241 0 120 3 224 6 233 3 9 17
16 30 16 13 0 24 6 24 13 0 9 -26 12 -96 12 -52 1 -98 -3 -100 -7z"/>
<path d="M3348 3240 c-111 -59 -160 -230 -108 -377 26 -75 70 -120 139 -140
128 -37 246 18 267 125 8 41 -7 42 -25 1 -38 -87 -186 -102 -260 -27 -87 89
-75 301 19 368 95 68 194 12 184 -102 -4 -44 -3 -48 18 -48 13 0 34 -3 47 -7
24 -6 24 -6 17 51 -14 126 -70 176 -193 176 -47 -1 -79 -7 -105 -20z"/>
<path d="M3804 3249 c-26 -5 -27 -7 -9 -14 11 -5 23 -13 27 -19 9 -13 11 -438
2 -460 -3 -9 -15 -16 -25 -16 -10 0 -19 -4 -19 -10 0 -6 37 -10 90 -10 50 0
90 2 90 5 0 3 -11 10 -25 15 l-26 10 3 117 3 118 100 1 c145 1 135 9 135 -111
0 -117 -4 -135 -31 -135 -10 0 -19 -4 -19 -10 0 -6 37 -10 90 -10 50 0 90 4
90 9 0 5 -10 11 -22 13 l-23 3 -3 238 -2 237 26 10 c43 17 19 24 -68 22 -90
-2 -104 -7 -64 -21 26 -10 26 -12 26 -106 l0 -95 -120 0 -120 0 0 95 c0 94 0
96 26 106 15 5 24 13 20 17 -9 8 -111 9 -152 1z"/>
<path d="M4515 3252 c-13 -13 -3 -22 25 -22 21 0 30 -5 30 -17 0 -24 -122
-446 -133 -460 -5 -7 -18 -13 -28 -13 -11 0 -19 -4 -19 -10 0 -6 37 -10 91
-10 57 0 88 4 84 10 -3 6 -17 10 -31 10 -28 0 -30 16 -13 86 l11 44 93 0 92 0
16 -57 c18 -65 16 -73 -19 -73 -13 0 -24 -4 -24 -10 0 -6 40 -10 101 -10 64 0
98 4 94 10 -3 6 -12 10 -18 10 -7 0 -17 4 -24 8 -11 7 -143 448 -143 478 0 7
-4 16 -10 19 -13 8 -168 14 -175 7z m150 -203 c19 -68 35 -125 35 -126 0 -2
-34 -3 -76 -3 -57 0 -75 3 -72 13 3 6 20 65 38 130 18 64 35 115 37 113 2 -2
20 -59 38 -127z"/>
<path d="M5016 3252 c-22 -5 -20 -19 4 -25 19 -5 20 -14 20 -242 0 -228 -1
-237 -20 -242 -46 -12 -15 -23 65 -23 50 0 85 4 85 10 0 6 -9 10 -19 10 -10 0
-22 7 -25 16 -9 23 -7 254 2 254 7 0 194 -243 200 -261 2 -5 -8 -9 -22 -9 -14
0 -26 -4 -26 -10 0 -6 35 -10 85 -10 47 0 85 3 85 6 0 11 -161 193 -207 234
l-46 40 44 0 c128 0 191 122 109 213 l-28 32 -145 5 c-79 3 -152 4 -161 2z
m243 -57 c33 -17 41 -33 41 -85 0 -88 -124 -110 -166 -29 -8 16 -14 51 -14 79
l0 50 55 0 c31 0 69 -7 84 -15z"/>
<path d="M5924 3246 c-66 -29 -104 -114 -82 -182 16 -48 55 -75 158 -109 125
-42 157 -80 124 -150 -23 -49 -78 -64 -151 -41 -72 23 -133 102 -133 172 0 13
-4 24 -10 24 -6 0 -10 -35 -10 -84 0 -82 1 -85 30 -110 35 -29 116 -56 169
-56 101 0 180 55 188 132 11 100 -23 137 -179 194 -98 35 -118 51 -118 95 0
74 109 116 184 70 38 -24 70 -69 81 -113 13 -51 21 -29 17 45 -4 80 -15 96
-83 116 -49 15 -147 13 -185 -3z"/>
<path d="M6317 3195 c-5 -65 6 -96 17 -44 10 52 22 59 97 59 l69 0 0 -219 c0
-121 -3 -226 -6 -235 -3 -9 -17 -16 -30 -16 -13 0 -24 -4 -24 -10 0 -6 40 -10
100 -10 60 0 100 4 100 10 0 6 -11 10 -24 10 -13 0 -27 7 -30 16 -3 9 -6 114
-6 235 l0 220 72 -3 72 -3 17 -44 c20 -54 26 -44 21 34 l-4 60 -218 0 -218 0
-5 -60z"/>
<path d="M7346 3191 c-8 -71 -2 -89 14 -45 20 57 23 59 99 62 l71 3 0 -224 c0
-231 -3 -247 -42 -247 -10 0 -18 -4 -18 -10 0 -6 41 -10 102 -10 61 0 98 4 93
9 -6 5 -19 11 -30 13 -19 3 -20 12 -23 236 l-2 233 72 -3 73 -3 13 -43 c8 -23
17 -40 20 -38 4 2 6 33 4 68 l-3 63 -219 0 -218 0 -6 -64z"/>
<path d="M7920 3243 c0 -6 10 -13 23 -15 l22 -3 0 -240 0 -240 -22 -3 c-13 -2
-23 -8 -23 -13 0 -5 43 -9 95 -9 52 0 95 4 95 9 0 5 -10 11 -22 13 l-23 3 -3
237 c-2 224 -1 238 17 247 10 6 21 7 25 4 3 -3 6 -1 6 5 0 7 -15 12 -32 13
-139 4 -158 3 -158 -8z"/>
<path d="M8360 3238 c-150 -77 -173 -357 -38 -473 66 -56 182 -69 259 -30 129
67 169 295 75 432 -44 65 -100 93 -186 93 -48 0 -77 -6 -110 -22z m177 -39
c18 -12 44 -40 56 -63 19 -35 22 -57 22 -151 0 -95 -3 -116 -23 -152 -26 -50
-65 -73 -122 -73 -54 0 -92 23 -122 74 -20 36 -23 54 -23 151 0 97 3 115 23
150 46 81 121 106 189 64z"/>
<path d="M8857 3252 c-23 -5 -21 -19 3 -25 19 -5 20 -14 20 -242 0 -228 -1
-237 -20 -242 -46 -12 -15 -23 65 -23 50 0 85 4 85 10 0 6 -10 10 -22 10 -48
0 -49 4 -46 222 l3 206 125 -224 125 -224 78 0 c78 0 95 7 55 25 -23 10 -23
13 -26 225 -1 118 0 225 3 236 2 12 15 24 27 27 12 4 20 9 16 12 -9 9 -142 13
-163 4 -22 -8 -22 -8 14 -15 50 -9 51 -13 51 -230 0 -112 -4 -204 -8 -204 -4
0 -20 24 -35 53 -14 28 -69 129 -122 222 l-95 170 -59 5 c-32 3 -65 4 -74 2z"/>
<path d="M6968 3234 c24 -10 32 -19 28 -32 -3 -9 -33 -115 -67 -235 -61 -213
-63 -218 -91 -224 -57 -11 -26 -23 62 -23 53 0 90 4 90 10 0 6 -13 10 -30 10
-34 0 -35 4 -17 75 l13 50 94 0 93 0 13 -45 c20 -66 18 -80 -10 -80 -14 0 -28
-4 -31 -10 -4 -6 30 -10 94 -10 61 0 101 4 101 10 0 6 -8 10 -19 10 -10 0 -23
6 -29 13 -5 6 -41 121 -78 255 l-69 242 -90 -1 c-87 -1 -89 -1 -57 -15z m152
-301 c0 -9 -21 -13 -73 -13 l-74 0 34 118 c18 64 36 124 39 132 5 13 74 -206
74 -237z"/>
</g>
</svg>
